<svg width="19" height="19" viewBox="0 0 19 19" fill="none" xmlns="http://www.w3.org/2000/svg">
  <path
      d="M11.4532 13.5953C11.4179 13.5604 11.3703 13.5408 11.3207 13.5408C11.2711 13.5408 11.2236 13.5604 11.1883 13.5953L8.46488 16.3187C7.20395 17.5796 5.07582 17.7132 3.68364 16.3187C2.2891 14.9242 2.4227 12.7984 3.68364 11.5374L6.40707 8.81401C6.47973 8.74136 6.47973 8.62183 6.40707 8.54917L5.47426 7.61636C5.43902 7.58146 5.39143 7.56189 5.34184 7.56189C5.29224 7.56189 5.24466 7.58146 5.20942 7.61636L2.48598 10.3398C0.503168 12.3226 0.503168 15.5312 2.48598 17.5117C4.46879 19.4921 7.67738 19.4945 9.65785 17.5117L12.3813 14.7882C12.4539 14.7156 12.4539 14.596 12.3813 14.5234L11.4532 13.5953ZM17.5141 2.48589C15.5313 0.503076 12.3227 0.503076 10.3422 2.48589L7.61645 5.20933C7.58155 5.24457 7.56198 5.29215 7.56198 5.34175C7.56198 5.39134 7.58155 5.43893 7.61645 5.47417L8.54692 6.40464C8.61957 6.47729 8.7391 6.47729 8.81176 6.40464L11.5352 3.6812C12.7961 2.42026 14.9243 2.28667 16.3164 3.6812C17.711 5.07573 17.5774 7.20151 16.3164 8.46245L13.593 11.1859C13.5581 11.2211 13.5385 11.2687 13.5385 11.3183C13.5385 11.3679 13.5581 11.4155 13.593 11.4507L14.5258 12.3835C14.5985 12.4562 14.718 12.4562 14.7907 12.3835L17.5141 9.66011C19.4946 7.67729 19.4946 4.4687 17.5141 2.48589ZM12.2993 6.72573C12.264 6.69084 12.2164 6.67126 12.1668 6.67126C12.1172 6.67126 12.0697 6.69084 12.0344 6.72573L6.72582 12.032C6.69093 12.0672 6.67135 12.1148 6.67135 12.1644C6.67135 12.214 6.69093 12.2616 6.72582 12.2968L7.65395 13.2249C7.7266 13.2976 7.84613 13.2976 7.91879 13.2249L13.225 7.9187C13.2977 7.84604 13.2977 7.72651 13.225 7.65386L12.2993 6.72573Z"
      fill="black"/>
</svg>
