<svg width="18" height="18" viewBox="0 0 18 18" fill="none" xmlns="http://www.w3.org/2000/svg">
  <path
      d="M10.3153 9L16.9803 1.05527C17.092 0.923242 16.9981 0.722656 16.8254 0.722656H14.7992C14.6799 0.722656 14.5656 0.775976 14.4869 0.867383L8.98987 7.4207L3.49279 0.867383C3.41662 0.775976 3.30236 0.722656 3.18049 0.722656H1.15432C0.981661 0.722656 0.887716 0.923242 0.999434 1.05527L7.66447 9L0.999434 16.9447C0.974408 16.9742 0.958353 17.0101 0.953174 17.0484C0.947996 17.0867 0.953911 17.1257 0.970218 17.1607C0.986526 17.1957 1.01254 17.2253 1.04517 17.246C1.07781 17.2667 1.11569 17.2776 1.15432 17.2773H3.18049C3.29982 17.2773 3.41408 17.224 3.49279 17.1326L8.98987 10.5793L14.4869 17.1326C14.5631 17.224 14.6774 17.2773 14.7992 17.2773H16.8254C16.9981 17.2773 17.092 17.0768 16.9803 16.9447L10.3153 9Z"
      fill="black"/>
</svg>
